<mxfile host="app.diagrams.net" modified="2020-08-06T06:46:03.518Z" agent="5.0 (Macintosh; Intel Mac OS X 10_15_6) AppleWebKit/537.36 (KHTML, like Gecko) Chrome/84.0.4147.105 Safari/537.36 Edg/84.0.522.52" etag="51QN3C76Z_l07Isse2Sy" version="13.5.8" type="github">
  <diagram id="wPmN-SIMmLNJgdiLbzCr" name="Page-1">
    <mxGraphModel dx="10983" dy="5594" grid="1" gridSize="10" guides="1" tooltips="1" connect="1" arrows="1" fold="1" page="1" pageScale="1" pageWidth="1169" pageHeight="1654" math="0" shadow="0">
      <root>
        <mxCell id="0" />
        <mxCell id="1" parent="0" />
        <mxCell id="B8ZQgnajAHr_xDxayh_B-1" value="" style="rounded=0;whiteSpace=wrap;html=1;fillColor=#f5f5f5;strokeColor=#666666;fontColor=#333333;labelBackgroundColor=none;" vertex="1" parent="1">
          <mxGeometry x="-4216" y="-223" width="3198" height="1398" as="geometry" />
        </mxCell>
        <mxCell id="B8ZQgnajAHr_xDxayh_B-2" style="edgeStyle=orthogonalEdgeStyle;rounded=0;orthogonalLoop=1;jettySize=auto;html=1;exitX=0.5;exitY=1;exitDx=0;exitDy=0;labelBackgroundColor=none;" edge="1" parent="1" source="B8ZQgnajAHr_xDxayh_B-61" target="B8ZQgnajAHr_xDxayh_B-89">
          <mxGeometry relative="1" as="geometry">
            <mxPoint x="-3124.8600000000006" y="556" as="sourcePoint" />
          </mxGeometry>
        </mxCell>
        <mxCell id="B8ZQgnajAHr_xDxayh_B-3" style="edgeStyle=orthogonalEdgeStyle;rounded=0;orthogonalLoop=1;jettySize=auto;html=1;exitX=0.5;exitY=1;exitDx=0;exitDy=0;entryX=0.5;entryY=0;entryDx=0;entryDy=0;labelBackgroundColor=none;" edge="1" parent="1" source="B8ZQgnajAHr_xDxayh_B-61" target="B8ZQgnajAHr_xDxayh_B-103">
          <mxGeometry relative="1" as="geometry">
            <mxPoint x="-3124.8600000000006" y="556" as="sourcePoint" />
          </mxGeometry>
        </mxCell>
        <mxCell id="B8ZQgnajAHr_xDxayh_B-4" style="edgeStyle=orthogonalEdgeStyle;rounded=0;orthogonalLoop=1;jettySize=auto;html=1;exitX=0.5;exitY=1;exitDx=0;exitDy=0;entryX=0.5;entryY=0;entryDx=0;entryDy=0;labelBackgroundColor=none;" edge="1" parent="1" source="B8ZQgnajAHr_xDxayh_B-61" target="B8ZQgnajAHr_xDxayh_B-8">
          <mxGeometry relative="1" as="geometry">
            <mxPoint x="-3124.8600000000006" y="556" as="sourcePoint" />
          </mxGeometry>
        </mxCell>
        <mxCell id="B8ZQgnajAHr_xDxayh_B-5" style="edgeStyle=orthogonalEdgeStyle;rounded=0;orthogonalLoop=1;jettySize=auto;html=1;exitX=0.5;exitY=1;exitDx=0;exitDy=0;entryX=0.5;entryY=0;entryDx=0;entryDy=0;labelBackgroundColor=none;" edge="1" parent="1" source="B8ZQgnajAHr_xDxayh_B-61" target="B8ZQgnajAHr_xDxayh_B-69">
          <mxGeometry relative="1" as="geometry">
            <mxPoint x="-3124.8600000000006" y="556" as="sourcePoint" />
          </mxGeometry>
        </mxCell>
        <mxCell id="B8ZQgnajAHr_xDxayh_B-6" style="edgeStyle=orthogonalEdgeStyle;rounded=0;orthogonalLoop=1;jettySize=auto;html=1;exitX=0.5;exitY=1;exitDx=0;exitDy=0;fontSize=15;labelBackgroundColor=none;" edge="1" parent="1" source="B8ZQgnajAHr_xDxayh_B-8" target="B8ZQgnajAHr_xDxayh_B-10">
          <mxGeometry relative="1" as="geometry" />
        </mxCell>
        <mxCell id="B8ZQgnajAHr_xDxayh_B-7" style="edgeStyle=orthogonalEdgeStyle;rounded=0;orthogonalLoop=1;jettySize=auto;html=1;exitX=1;exitY=0.5;exitDx=0;exitDy=0;entryX=0.5;entryY=0;entryDx=0;entryDy=0;" edge="1" parent="1" source="B8ZQgnajAHr_xDxayh_B-8" target="B8ZQgnajAHr_xDxayh_B-75">
          <mxGeometry relative="1" as="geometry" />
        </mxCell>
        <mxCell id="B8ZQgnajAHr_xDxayh_B-8" value="Wijzigen leningdeel#3" style="text;html=1;strokeColor=none;fillColor=none;align=center;verticalAlign=middle;whiteSpace=wrap;rounded=0;fontStyle=1;fontSize=15;labelBackgroundColor=none;" vertex="1" parent="1">
          <mxGeometry x="-3141.86" y="545.9999999999992" width="147" height="50" as="geometry" />
        </mxCell>
        <mxCell id="B8ZQgnajAHr_xDxayh_B-9" style="edgeStyle=orthogonalEdgeStyle;rounded=0;orthogonalLoop=1;jettySize=auto;html=1;exitX=0.5;exitY=1;exitDx=0;exitDy=0;entryX=0.5;entryY=0;entryDx=0;entryDy=0;fontSize=15;labelBackgroundColor=none;" edge="1" parent="1" source="B8ZQgnajAHr_xDxayh_B-10" target="B8ZQgnajAHr_xDxayh_B-11">
          <mxGeometry relative="1" as="geometry" />
        </mxCell>
        <mxCell id="B8ZQgnajAHr_xDxayh_B-10" value="Wijzigen leningdeel door splitsen (omzetten)" style="text;whiteSpace=wrap;html=1;fontSize=15;align=center;labelBackgroundColor=none;" vertex="1" parent="1">
          <mxGeometry x="-3161" y="845.0299999999997" width="185" height="90" as="geometry" />
        </mxCell>
        <mxCell id="B8ZQgnajAHr_xDxayh_B-11" value="&lt;p&gt;leningdeelNr (V)&lt;br&gt;productCode (V)&lt;br&gt;aflosVorm (V)&lt;br&gt;nieuweProResto (V)&lt;/p&gt;" style="text;html=1;strokeColor=none;fillColor=none;spacing=5;spacingTop=-20;whiteSpace=wrap;overflow=hidden;rounded=0;fontSize=15;align=center;labelBackgroundColor=none;" vertex="1" parent="1">
          <mxGeometry x="-3161" y="1007" width="185" height="90" as="geometry" />
        </mxCell>
        <mxCell id="B8ZQgnajAHr_xDxayh_B-12" style="edgeStyle=orthogonalEdgeStyle;rounded=0;orthogonalLoop=1;jettySize=auto;html=1;exitX=0.5;exitY=1;exitDx=0;exitDy=0;entryX=0.5;entryY=0;entryDx=0;entryDy=0;fontSize=15;labelBackgroundColor=none;" edge="1" parent="1" source="B8ZQgnajAHr_xDxayh_B-15" target="B8ZQgnajAHr_xDxayh_B-16">
          <mxGeometry relative="1" as="geometry" />
        </mxCell>
        <mxCell id="B8ZQgnajAHr_xDxayh_B-13" style="edgeStyle=orthogonalEdgeStyle;rounded=0;orthogonalLoop=1;jettySize=auto;html=1;exitX=0.5;exitY=1;exitDx=0;exitDy=0;entryX=0.5;entryY=0;entryDx=0;entryDy=0;fontSize=15;labelBackgroundColor=none;" edge="1" parent="1" source="B8ZQgnajAHr_xDxayh_B-15" target="B8ZQgnajAHr_xDxayh_B-20">
          <mxGeometry relative="1" as="geometry" />
        </mxCell>
        <mxCell id="B8ZQgnajAHr_xDxayh_B-14" style="edgeStyle=orthogonalEdgeStyle;rounded=0;orthogonalLoop=1;jettySize=auto;html=1;exitX=0.5;exitY=1;exitDx=0;exitDy=0;entryX=0.5;entryY=0;entryDx=0;entryDy=0;fontSize=15;labelBackgroundColor=none;" edge="1" parent="1" source="B8ZQgnajAHr_xDxayh_B-15" target="B8ZQgnajAHr_xDxayh_B-22">
          <mxGeometry relative="1" as="geometry" />
        </mxCell>
        <mxCell id="B8ZQgnajAHr_xDxayh_B-15" value="Wijzigen Hypotheek#2" style="text;html=1;strokeColor=none;fillColor=none;align=center;verticalAlign=middle;whiteSpace=wrap;rounded=0;fontStyle=1;fontSize=15;labelBackgroundColor=none;" vertex="1" parent="1">
          <mxGeometry x="-2596.5" y="192.00000000000034" width="147" height="20" as="geometry" />
        </mxCell>
        <mxCell id="B8ZQgnajAHr_xDxayh_B-16" value="&lt;span style=&quot;font-weight: 700&quot;&gt;Wijzigen Lening#1&lt;/span&gt;" style="text;whiteSpace=wrap;html=1;fontSize=15;align=center;labelBackgroundColor=none;" vertex="1" parent="1">
          <mxGeometry x="-3208.995714285714" y="384" width="153" height="50" as="geometry" />
        </mxCell>
        <mxCell id="B8ZQgnajAHr_xDxayh_B-17" style="edgeStyle=orthogonalEdgeStyle;rounded=0;orthogonalLoop=1;jettySize=auto;html=1;exitX=0.5;exitY=1;exitDx=0;exitDy=0;fontSize=15;labelBackgroundColor=none;" edge="1" parent="1">
          <mxGeometry relative="1" as="geometry">
            <mxPoint x="-2781" y="135" as="sourcePoint" />
            <mxPoint x="-2781" y="135" as="targetPoint" />
          </mxGeometry>
        </mxCell>
        <mxCell id="B8ZQgnajAHr_xDxayh_B-18" style="edgeStyle=orthogonalEdgeStyle;rounded=0;orthogonalLoop=1;jettySize=auto;html=1;exitX=0.5;exitY=1;exitDx=0;exitDy=0;entryX=0.5;entryY=0;entryDx=0;entryDy=0;fontSize=15;labelBackgroundColor=none;" edge="1" parent="1" source="B8ZQgnajAHr_xDxayh_B-20" target="B8ZQgnajAHr_xDxayh_B-26">
          <mxGeometry relative="1" as="geometry" />
        </mxCell>
        <mxCell id="B8ZQgnajAHr_xDxayh_B-19" style="edgeStyle=orthogonalEdgeStyle;rounded=0;orthogonalLoop=1;jettySize=auto;html=1;exitX=0.5;exitY=1;exitDx=0;exitDy=0;entryX=0.5;entryY=0;entryDx=0;entryDy=0;fontSize=15;labelBackgroundColor=none;" edge="1" parent="1" source="B8ZQgnajAHr_xDxayh_B-20" target="B8ZQgnajAHr_xDxayh_B-28">
          <mxGeometry relative="1" as="geometry" />
        </mxCell>
        <mxCell id="B8ZQgnajAHr_xDxayh_B-20" value="&lt;span style=&quot;color: rgb(0, 0, 0); font-family: helvetica; font-size: 15px; font-style: normal; font-weight: 700; letter-spacing: normal; text-indent: 0px; text-transform: none; word-spacing: 0px; display: inline; float: none;&quot;&gt;Wijzigen depots&lt;/span&gt;" style="text;whiteSpace=wrap;html=1;fontSize=15;align=center;labelBackgroundColor=none;" vertex="1" parent="1">
          <mxGeometry x="-1974.4957142857138" y="384" width="153" height="50" as="geometry" />
        </mxCell>
        <mxCell id="B8ZQgnajAHr_xDxayh_B-21" style="edgeStyle=orthogonalEdgeStyle;rounded=0;orthogonalLoop=1;jettySize=auto;html=1;exitX=0.5;exitY=1;exitDx=0;exitDy=0;fontSize=15;labelBackgroundColor=none;" edge="1" parent="1" source="B8ZQgnajAHr_xDxayh_B-22" target="B8ZQgnajAHr_xDxayh_B-24">
          <mxGeometry relative="1" as="geometry" />
        </mxCell>
        <mxCell id="B8ZQgnajAHr_xDxayh_B-22" value="&lt;span style=&quot;color: rgb(0, 0, 0); font-family: helvetica; font-size: 15px; font-style: normal; font-weight: 700; letter-spacing: normal; text-indent: 0px; text-transform: none; word-spacing: 0px; display: inline; float: none;&quot;&gt;Wijzigen hypotheekdekking&lt;/span&gt;" style="text;whiteSpace=wrap;html=1;fontSize=15;align=center;labelBackgroundColor=none;" vertex="1" parent="1">
          <mxGeometry x="-2325.495714285714" y="384" width="153" height="50" as="geometry" />
        </mxCell>
        <mxCell id="B8ZQgnajAHr_xDxayh_B-23" style="edgeStyle=orthogonalEdgeStyle;rounded=0;orthogonalLoop=1;jettySize=auto;html=1;exitX=0.5;exitY=1;exitDx=0;exitDy=0;entryX=0.5;entryY=0;entryDx=0;entryDy=0;fontSize=15;labelBackgroundColor=none;" edge="1" parent="1" source="B8ZQgnajAHr_xDxayh_B-24" target="B8ZQgnajAHr_xDxayh_B-34">
          <mxGeometry relative="1" as="geometry" />
        </mxCell>
        <mxCell id="B8ZQgnajAHr_xDxayh_B-24" value="&lt;meta charset=&quot;utf-8&quot;&gt;&lt;span style=&quot;color: rgb(0, 0, 0); font-family: helvetica; font-size: 15px; font-style: normal; font-weight: 700; letter-spacing: normal; text-indent: 0px; text-transform: none; word-spacing: 0px; display: inline; float: none;&quot;&gt;Wijzigen hypotheekdekking#1 (ORV)&lt;/span&gt;" style="text;whiteSpace=wrap;html=1;fontSize=15;align=center;labelBackgroundColor=none;" vertex="1" parent="1">
          <mxGeometry x="-2339" y="506" width="180" height="50" as="geometry" />
        </mxCell>
        <mxCell id="B8ZQgnajAHr_xDxayh_B-25" style="edgeStyle=orthogonalEdgeStyle;rounded=0;orthogonalLoop=1;jettySize=auto;html=1;exitX=0.5;exitY=1;exitDx=0;exitDy=0;fontSize=15;labelBackgroundColor=none;" edge="1" parent="1" source="B8ZQgnajAHr_xDxayh_B-26" target="B8ZQgnajAHr_xDxayh_B-30">
          <mxGeometry relative="1" as="geometry" />
        </mxCell>
        <mxCell id="B8ZQgnajAHr_xDxayh_B-26" value="&lt;span style=&quot;color: rgb(0, 0, 0); font-family: helvetica; font-size: 15px; font-style: normal; font-weight: 700; letter-spacing: normal; text-indent: 0px; text-transform: none; word-spacing: 0px; display: inline; float: none;&quot;&gt;Wijzigen depot#1 (BouwDepot)&lt;/span&gt;" style="text;whiteSpace=wrap;html=1;fontSize=15;align=center;labelBackgroundColor=none;" vertex="1" parent="1">
          <mxGeometry x="-2084.495714285714" y="506" width="153" height="50" as="geometry" />
        </mxCell>
        <mxCell id="B8ZQgnajAHr_xDxayh_B-27" style="edgeStyle=orthogonalEdgeStyle;rounded=0;orthogonalLoop=1;jettySize=auto;html=1;exitX=0.5;exitY=1;exitDx=0;exitDy=0;entryX=0.5;entryY=0;entryDx=0;entryDy=0;fontSize=15;labelBackgroundColor=none;" edge="1" parent="1" source="B8ZQgnajAHr_xDxayh_B-28" target="B8ZQgnajAHr_xDxayh_B-32">
          <mxGeometry relative="1" as="geometry" />
        </mxCell>
        <mxCell id="B8ZQgnajAHr_xDxayh_B-28" value="&lt;span style=&quot;color: rgb(0, 0, 0); font-family: helvetica; font-size: 15px; font-style: normal; font-weight: 700; letter-spacing: normal; text-indent: 0px; text-transform: none; word-spacing: 0px; display: inline; float: none;&quot;&gt;NIET Wijzigen depot#2 (EnergieDepot)&lt;/span&gt;" style="text;whiteSpace=wrap;html=1;fontSize=15;align=center;labelBackgroundColor=none;" vertex="1" parent="1">
          <mxGeometry x="-1848.4957142857138" y="506" width="153" height="50" as="geometry" />
        </mxCell>
        <mxCell id="B8ZQgnajAHr_xDxayh_B-29" style="edgeStyle=orthogonalEdgeStyle;rounded=0;orthogonalLoop=1;jettySize=auto;html=1;exitX=0.5;exitY=1;exitDx=0;exitDy=0;entryX=0.5;entryY=0;entryDx=0;entryDy=0;fontSize=15;labelBackgroundColor=none;" edge="1" parent="1" source="B8ZQgnajAHr_xDxayh_B-30" target="B8ZQgnajAHr_xDxayh_B-58">
          <mxGeometry relative="1" as="geometry" />
        </mxCell>
        <mxCell id="B8ZQgnajAHr_xDxayh_B-30" value="Beëindigen depot door storting resterende depotwaarde op rekening klant" style="text;whiteSpace=wrap;html=1;fontSize=15;align=center;labelBackgroundColor=none;" vertex="1" parent="1">
          <mxGeometry x="-2114" y="645" width="212" height="66" as="geometry" />
        </mxCell>
        <mxCell id="B8ZQgnajAHr_xDxayh_B-31" style="edgeStyle=orthogonalEdgeStyle;rounded=0;orthogonalLoop=1;jettySize=auto;html=1;exitX=0.5;exitY=1;exitDx=0;exitDy=0;entryX=0.5;entryY=0;entryDx=0;entryDy=0;fontSize=15;labelBackgroundColor=none;" edge="1" parent="1" source="B8ZQgnajAHr_xDxayh_B-32" target="B8ZQgnajAHr_xDxayh_B-56">
          <mxGeometry relative="1" as="geometry" />
        </mxCell>
        <mxCell id="B8ZQgnajAHr_xDxayh_B-32" value="Depot ongewijzigd voortzetten" style="text;whiteSpace=wrap;html=1;fontSize=15;align=center;labelBackgroundColor=none;" vertex="1" parent="1">
          <mxGeometry x="-1839" y="645" width="134" height="66" as="geometry" />
        </mxCell>
        <mxCell id="B8ZQgnajAHr_xDxayh_B-33" style="edgeStyle=orthogonalEdgeStyle;rounded=0;orthogonalLoop=1;jettySize=auto;html=1;exitX=0.5;exitY=1;exitDx=0;exitDy=0;entryX=0.5;entryY=0;entryDx=0;entryDy=0;fontSize=15;labelBackgroundColor=none;" edge="1" parent="1" source="B8ZQgnajAHr_xDxayh_B-34" target="B8ZQgnajAHr_xDxayh_B-57">
          <mxGeometry relative="1" as="geometry" />
        </mxCell>
        <mxCell id="B8ZQgnajAHr_xDxayh_B-34" value="Wijzigen financiele dekking door aanpassen verzekerde waarde (bij lagere hoofdsom)" style="text;whiteSpace=wrap;html=1;fontSize=15;align=center;labelBackgroundColor=none;" vertex="1" parent="1">
          <mxGeometry x="-2339" y="644.9999999999999" width="180" height="85" as="geometry" />
        </mxCell>
        <mxCell id="B8ZQgnajAHr_xDxayh_B-35" style="edgeStyle=orthogonalEdgeStyle;rounded=0;orthogonalLoop=1;jettySize=auto;html=1;exitX=0.5;exitY=1;exitDx=0;exitDy=0;entryX=0.5;entryY=0;entryDx=0;entryDy=0;fontSize=15;labelBackgroundColor=none;" edge="1" parent="1" source="B8ZQgnajAHr_xDxayh_B-45" target="B8ZQgnajAHr_xDxayh_B-15">
          <mxGeometry relative="1" as="geometry" />
        </mxCell>
        <mxCell id="B8ZQgnajAHr_xDxayh_B-36" style="edgeStyle=orthogonalEdgeStyle;rounded=0;orthogonalLoop=1;jettySize=auto;html=1;exitX=0.5;exitY=1;exitDx=0;exitDy=0;entryX=0.5;entryY=0;entryDx=0;entryDy=0;fontSize=15;labelBackgroundColor=none;" edge="1" parent="1" source="B8ZQgnajAHr_xDxayh_B-39" target="B8ZQgnajAHr_xDxayh_B-45">
          <mxGeometry relative="1" as="geometry" />
        </mxCell>
        <mxCell id="B8ZQgnajAHr_xDxayh_B-37" style="edgeStyle=orthogonalEdgeStyle;rounded=0;orthogonalLoop=1;jettySize=auto;html=1;exitX=0.5;exitY=1;exitDx=0;exitDy=0;entryX=0.5;entryY=0;entryDx=0;entryDy=0;fontSize=15;labelBackgroundColor=none;" edge="1" parent="1" source="B8ZQgnajAHr_xDxayh_B-39" target="B8ZQgnajAHr_xDxayh_B-47">
          <mxGeometry relative="1" as="geometry" />
        </mxCell>
        <mxCell id="B8ZQgnajAHr_xDxayh_B-38" style="edgeStyle=orthogonalEdgeStyle;rounded=0;orthogonalLoop=1;jettySize=auto;html=1;exitX=0.5;exitY=1;exitDx=0;exitDy=0;entryX=0.5;entryY=0;entryDx=0;entryDy=0;fontSize=15;labelBackgroundColor=none;" edge="1" parent="1" source="B8ZQgnajAHr_xDxayh_B-39" target="B8ZQgnajAHr_xDxayh_B-51">
          <mxGeometry relative="1" as="geometry" />
        </mxCell>
        <mxCell id="B8ZQgnajAHr_xDxayh_B-39" value="BeheerVerzoek&lt;br&gt;&lt;span style=&quot;font-weight: normal&quot;&gt;Omzetten lening&lt;/span&gt;" style="text;html=1;strokeColor=none;fillColor=none;align=center;verticalAlign=middle;whiteSpace=wrap;rounded=0;fontStyle=1;fontSize=15;labelBackgroundColor=none;" vertex="1" parent="1">
          <mxGeometry x="-2468.5" y="-145" width="147" height="20" as="geometry" />
        </mxCell>
        <mxCell id="B8ZQgnajAHr_xDxayh_B-40" style="edgeStyle=orthogonalEdgeStyle;rounded=0;orthogonalLoop=1;jettySize=auto;html=1;entryX=0.5;entryY=0;entryDx=0;entryDy=0;fontSize=15;labelBackgroundColor=none;" edge="1" parent="1" source="B8ZQgnajAHr_xDxayh_B-41" target="B8ZQgnajAHr_xDxayh_B-43">
          <mxGeometry relative="1" as="geometry" />
        </mxCell>
        <mxCell id="B8ZQgnajAHr_xDxayh_B-41" value="Hypotheek#1" style="text;html=1;strokeColor=none;fillColor=none;align=center;verticalAlign=middle;whiteSpace=wrap;rounded=0;fontStyle=1;fontSize=15;labelBackgroundColor=none;" vertex="1" parent="1">
          <mxGeometry x="-3518.5" y="192.00000000000034" width="147" height="20" as="geometry" />
        </mxCell>
        <mxCell id="B8ZQgnajAHr_xDxayh_B-42" style="edgeStyle=orthogonalEdgeStyle;rounded=0;orthogonalLoop=1;jettySize=auto;html=1;exitX=0.5;exitY=1;exitDx=0;exitDy=0;entryX=0.5;entryY=0;entryDx=0;entryDy=0;fontSize=15;labelBackgroundColor=none;" edge="1" parent="1" source="B8ZQgnajAHr_xDxayh_B-43" target="B8ZQgnajAHr_xDxayh_B-55">
          <mxGeometry relative="1" as="geometry" />
        </mxCell>
        <mxCell id="B8ZQgnajAHr_xDxayh_B-43" value="Hypotheek ongewijzigd voortzetten" style="text;whiteSpace=wrap;html=1;fontSize=15;align=center;labelBackgroundColor=none;" vertex="1" parent="1">
          <mxGeometry x="-3511.9999999999995" y="267.0000000000002" width="134" height="66" as="geometry" />
        </mxCell>
        <mxCell id="B8ZQgnajAHr_xDxayh_B-44" style="edgeStyle=orthogonalEdgeStyle;rounded=0;orthogonalLoop=1;jettySize=auto;html=1;exitX=0.5;exitY=1;exitDx=0;exitDy=0;entryX=0.5;entryY=0;entryDx=0;entryDy=0;fontSize=15;labelBackgroundColor=none;" edge="1" parent="1" source="B8ZQgnajAHr_xDxayh_B-45" target="B8ZQgnajAHr_xDxayh_B-41">
          <mxGeometry relative="1" as="geometry" />
        </mxCell>
        <mxCell id="B8ZQgnajAHr_xDxayh_B-45" value="Hypotheken" style="text;html=1;strokeColor=none;fillColor=none;align=center;verticalAlign=middle;whiteSpace=wrap;rounded=0;fontStyle=1;fontSize=15;labelBackgroundColor=none;" vertex="1" parent="1">
          <mxGeometry x="-3020.5" y="39" width="147" height="20" as="geometry" />
        </mxCell>
        <mxCell id="B8ZQgnajAHr_xDxayh_B-46" style="edgeStyle=orthogonalEdgeStyle;rounded=0;orthogonalLoop=1;jettySize=auto;html=1;exitX=0.5;exitY=1;exitDx=0;exitDy=0;fontSize=15;labelBackgroundColor=none;" edge="1" parent="1" source="B8ZQgnajAHr_xDxayh_B-47">
          <mxGeometry relative="1" as="geometry">
            <mxPoint x="-3947" y="126" as="targetPoint" />
          </mxGeometry>
        </mxCell>
        <mxCell id="B8ZQgnajAHr_xDxayh_B-47" value="Onderpand" style="text;html=1;strokeColor=none;fillColor=none;align=center;verticalAlign=middle;whiteSpace=wrap;rounded=0;fontStyle=1;fontSize=15;labelBackgroundColor=none;" vertex="1" parent="1">
          <mxGeometry x="-4020.5" y="39" width="147" height="20" as="geometry" />
        </mxCell>
        <mxCell id="B8ZQgnajAHr_xDxayh_B-48" value="NIET wijzigen&amp;nbsp;" style="text;html=1;strokeColor=none;fillColor=none;align=center;verticalAlign=middle;whiteSpace=wrap;rounded=0;fontStyle=1;fontSize=15;labelBackgroundColor=none;" vertex="1" parent="1">
          <mxGeometry x="-4020.5" y="137.00000000000034" width="147" height="20" as="geometry" />
        </mxCell>
        <mxCell id="B8ZQgnajAHr_xDxayh_B-49" style="edgeStyle=orthogonalEdgeStyle;rounded=0;orthogonalLoop=1;jettySize=auto;html=1;exitX=0.5;exitY=1;exitDx=0;exitDy=0;fontSize=15;entryX=0.5;entryY=0;entryDx=0;entryDy=0;labelBackgroundColor=none;" edge="1" parent="1" source="B8ZQgnajAHr_xDxayh_B-51" target="B8ZQgnajAHr_xDxayh_B-53">
          <mxGeometry relative="1" as="geometry">
            <mxPoint x="-1819.5" y="124" as="targetPoint" />
          </mxGeometry>
        </mxCell>
        <mxCell id="B8ZQgnajAHr_xDxayh_B-50" style="edgeStyle=orthogonalEdgeStyle;rounded=0;orthogonalLoop=1;jettySize=auto;html=1;exitX=0.5;exitY=1;exitDx=0;exitDy=0;entryX=0.5;entryY=0;entryDx=0;entryDy=0;fontSize=15;labelBackgroundColor=none;" edge="1" parent="1" source="B8ZQgnajAHr_xDxayh_B-51" target="B8ZQgnajAHr_xDxayh_B-54">
          <mxGeometry relative="1" as="geometry" />
        </mxCell>
        <mxCell id="B8ZQgnajAHr_xDxayh_B-51" value="Partijen" style="text;html=1;strokeColor=none;fillColor=none;align=center;verticalAlign=middle;whiteSpace=wrap;rounded=0;fontStyle=1;fontSize=15;labelBackgroundColor=none;" vertex="1" parent="1">
          <mxGeometry x="-1404.4999999999998" y="39" width="147" height="20" as="geometry" />
        </mxCell>
        <mxCell id="B8ZQgnajAHr_xDxayh_B-52" style="edgeStyle=orthogonalEdgeStyle;rounded=0;orthogonalLoop=1;jettySize=auto;html=1;exitX=0.5;exitY=1;exitDx=0;exitDy=0;fontSize=15;labelBackgroundColor=none;" edge="1" parent="1" source="B8ZQgnajAHr_xDxayh_B-53">
          <mxGeometry relative="1" as="geometry">
            <mxPoint x="-1559" y="280" as="targetPoint" />
          </mxGeometry>
        </mxCell>
        <mxCell id="B8ZQgnajAHr_xDxayh_B-53" value="Hypotheekgever(s)" style="text;html=1;strokeColor=none;fillColor=none;align=center;verticalAlign=middle;whiteSpace=wrap;rounded=0;fontStyle=1;fontSize=15;labelBackgroundColor=none;" vertex="1" parent="1">
          <mxGeometry x="-1632.9999999999998" y="192.0000000000001" width="147" height="20" as="geometry" />
        </mxCell>
        <mxCell id="B8ZQgnajAHr_xDxayh_B-54" value="Adviseur" style="text;html=1;strokeColor=none;fillColor=none;align=center;verticalAlign=middle;whiteSpace=wrap;rounded=0;fontStyle=1;fontSize=15;labelBackgroundColor=none;" vertex="1" parent="1">
          <mxGeometry x="-1219.5" y="192" width="147" height="20" as="geometry" />
        </mxCell>
        <mxCell id="B8ZQgnajAHr_xDxayh_B-55" value="&lt;div&gt;&lt;font face=&quot;helvetica&quot; style=&quot;font-size: 15px&quot;&gt;Id (V)&lt;/font&gt;&lt;/div&gt;" style="text;whiteSpace=wrap;html=1;fontSize=15;align=center;labelBackgroundColor=none;" vertex="1" parent="1">
          <mxGeometry x="-3522" y="384" width="154" height="68" as="geometry" />
        </mxCell>
        <mxCell id="B8ZQgnajAHr_xDxayh_B-56" value="&lt;div&gt;&lt;font face=&quot;helvetica&quot; style=&quot;font-size: 15px&quot;&gt;Id (V)&lt;/font&gt;&lt;/div&gt;" style="text;whiteSpace=wrap;html=1;fontSize=15;align=center;labelBackgroundColor=none;" vertex="1" parent="1">
          <mxGeometry x="-1849.5" y="830" width="154" height="68" as="geometry" />
        </mxCell>
        <mxCell id="B8ZQgnajAHr_xDxayh_B-57" value="&lt;div&gt;&lt;font face=&quot;helvetica&quot; style=&quot;font-size: 15px&quot;&gt;Id (V)&lt;/font&gt;&lt;/div&gt;&lt;div&gt;&lt;span&gt;&lt;font face=&quot;helvetica&quot; style=&quot;font-size: 15px&quot;&gt;..... (V)&lt;/font&gt;&lt;/span&gt;&lt;/div&gt;&lt;div&gt;&lt;span&gt;&lt;font face=&quot;helvetica&quot; style=&quot;font-size: 15px&quot;&gt;.... (CV)&lt;/font&gt;&lt;/span&gt;&lt;/div&gt;&lt;div&gt;&lt;span&gt;&lt;font face=&quot;helvetica&quot; style=&quot;font-size: 15px&quot;&gt;.... (O)&lt;/font&gt;&lt;/span&gt;&lt;/div&gt;" style="text;whiteSpace=wrap;html=1;fontSize=15;align=center;labelBackgroundColor=none;" vertex="1" parent="1">
          <mxGeometry x="-2325.5" y="852" width="154" height="68" as="geometry" />
        </mxCell>
        <mxCell id="B8ZQgnajAHr_xDxayh_B-58" value="&lt;div&gt;&lt;font face=&quot;helvetica&quot; style=&quot;font-size: 15px&quot;&gt;Id (V)&lt;/font&gt;&lt;/div&gt;&lt;div&gt;&lt;span&gt;&lt;font face=&quot;helvetica&quot; style=&quot;font-size: 15px&quot;&gt;..... (V)&lt;/font&gt;&lt;/span&gt;&lt;/div&gt;&lt;div&gt;&lt;span&gt;&lt;font face=&quot;helvetica&quot; style=&quot;font-size: 15px&quot;&gt;.... (CV)&lt;/font&gt;&lt;/span&gt;&lt;/div&gt;&lt;div&gt;&lt;span&gt;&lt;font face=&quot;helvetica&quot; style=&quot;font-size: 15px&quot;&gt;.... (O)&lt;/font&gt;&lt;/span&gt;&lt;/div&gt;" style="text;whiteSpace=wrap;html=1;fontSize=15;align=center;labelBackgroundColor=none;" vertex="1" parent="1">
          <mxGeometry x="-2084.5" y="855" width="154" height="68" as="geometry" />
        </mxCell>
        <mxCell id="B8ZQgnajAHr_xDxayh_B-59" value="&lt;div style=&quot;font-size: 24px&quot;&gt;&lt;span style=&quot;font-size: 24px&quot;&gt;&lt;font face=&quot;helvetica&quot; style=&quot;font-size: 24px&quot;&gt;&lt;b style=&quot;font-size: 24px&quot;&gt;Conceptueel MutatieModel&lt;/b&gt;&lt;/font&gt;&lt;/span&gt;&lt;/div&gt;&lt;div style=&quot;font-size: 24px&quot;&gt;&lt;span style=&quot;font-size: 24px&quot;&gt;&lt;font face=&quot;helvetica&quot; style=&quot;font-size: 24px&quot;&gt;&lt;b style=&quot;font-size: 24px&quot;&gt;Omzetten Lening&lt;/b&gt;&lt;/font&gt;&lt;/span&gt;&lt;/div&gt;" style="text;whiteSpace=wrap;html=1;fontSize=24;align=center;" vertex="1" parent="1">
          <mxGeometry x="-1626.5" y="1066" width="597" height="81" as="geometry" />
        </mxCell>
        <mxCell id="B8ZQgnajAHr_xDxayh_B-60" value="&lt;span style=&quot;color: rgb(0, 0, 0); font-family: helvetica; font-size: 15px; font-style: normal; letter-spacing: normal; text-align: center; text-indent: 0px; text-transform: none; word-spacing: 0px; display: inline; float: none;&quot;&gt;(Omzetten lening)&lt;/span&gt;" style="text;whiteSpace=wrap;html=1;fontStyle=0;labelBackgroundColor=none;" vertex="1" parent="1">
          <mxGeometry x="-2588.003333333333" y="215.996666666667" width="137" height="29" as="geometry" />
        </mxCell>
        <mxCell id="B8ZQgnajAHr_xDxayh_B-61" value="&lt;span style=&quot;color: rgb(0, 0, 0); font-family: helvetica; font-size: 15px; font-style: normal; letter-spacing: normal; text-align: center; text-indent: 0px; text-transform: none; word-spacing: 0px; display: inline; float: none;&quot;&gt;(Omzetten lening)&lt;/span&gt;" style="text;whiteSpace=wrap;html=1;fontStyle=0;labelBackgroundColor=none;" vertex="1" parent="1">
          <mxGeometry x="-3201.993333333333" y="404.996666666667" width="137" height="29" as="geometry" />
        </mxCell>
        <mxCell id="B8ZQgnajAHr_xDxayh_B-62" style="edgeStyle=orthogonalEdgeStyle;rounded=0;orthogonalLoop=1;jettySize=auto;html=1;exitX=0.5;exitY=1;exitDx=0;exitDy=0;fontSize=15;labelBackgroundColor=none;entryX=0.5;entryY=0;entryDx=0;entryDy=0;" edge="1" parent="1" source="B8ZQgnajAHr_xDxayh_B-54" target="B8ZQgnajAHr_xDxayh_B-66">
          <mxGeometry relative="1" as="geometry">
            <mxPoint x="-1549.5" y="222" as="sourcePoint" />
            <mxPoint x="-1146" y="251" as="targetPoint" />
          </mxGeometry>
        </mxCell>
        <mxCell id="B8ZQgnajAHr_xDxayh_B-63" value="Onderpand ongewijzigd voortzetten" style="text;whiteSpace=wrap;html=1;fontSize=15;align=center;labelBackgroundColor=none;" vertex="1" parent="1">
          <mxGeometry x="-4015.9999999999995" y="173.00000000000023" width="134" height="66" as="geometry" />
        </mxCell>
        <mxCell id="B8ZQgnajAHr_xDxayh_B-64" value="NIET wijzigen&amp;nbsp;" style="text;html=1;strokeColor=none;fillColor=none;align=center;verticalAlign=middle;whiteSpace=wrap;rounded=0;fontStyle=1;fontSize=15;labelBackgroundColor=none;" vertex="1" parent="1">
          <mxGeometry x="-1631" y="285.00000000000034" width="147" height="20" as="geometry" />
        </mxCell>
        <mxCell id="B8ZQgnajAHr_xDxayh_B-65" value="Ongewijzigd voortzetten" style="text;whiteSpace=wrap;html=1;fontSize=15;align=center;labelBackgroundColor=none;" vertex="1" parent="1">
          <mxGeometry x="-1626.4999999999995" y="321.0000000000002" width="134" height="66" as="geometry" />
        </mxCell>
        <mxCell id="B8ZQgnajAHr_xDxayh_B-66" value="NIET wijzigen&amp;nbsp;" style="text;html=1;strokeColor=none;fillColor=none;align=center;verticalAlign=middle;whiteSpace=wrap;rounded=0;fontStyle=1;fontSize=15;labelBackgroundColor=none;" vertex="1" parent="1">
          <mxGeometry x="-1219" y="285.00000000000034" width="147" height="20" as="geometry" />
        </mxCell>
        <mxCell id="B8ZQgnajAHr_xDxayh_B-67" value="Ongewijzigd voortzetten" style="text;whiteSpace=wrap;html=1;fontSize=15;align=center;labelBackgroundColor=none;" vertex="1" parent="1">
          <mxGeometry x="-1214.4999999999995" y="321.0000000000002" width="134" height="66" as="geometry" />
        </mxCell>
        <mxCell id="B8ZQgnajAHr_xDxayh_B-68" value="" style="group" vertex="1" connectable="0" parent="1">
          <mxGeometry x="-2541" y="545.9999999999992" width="185" height="551.0000000000008" as="geometry" />
        </mxCell>
        <mxCell id="B8ZQgnajAHr_xDxayh_B-69" value="nieuw &lt;br&gt;leningdeel#4" style="text;html=1;strokeColor=none;fillColor=none;align=center;verticalAlign=middle;whiteSpace=wrap;rounded=0;fontStyle=1;fontSize=15;labelBackgroundColor=none;" vertex="1" parent="B8ZQgnajAHr_xDxayh_B-68">
          <mxGeometry x="19.139999999999873" width="147" height="50" as="geometry" />
        </mxCell>
        <mxCell id="B8ZQgnajAHr_xDxayh_B-70" value="&lt;span style=&quot;color: rgb(0, 0, 0); font-family: helvetica; font-size: 15px; font-style: normal; font-weight: 400; letter-spacing: normal; text-indent: 0px; text-transform: none; word-spacing: 0px; display: inline; float: none;&quot;&gt;Nieuw leningdeel aanvragen door splitsen leningdeel#3&lt;/span&gt;" style="text;whiteSpace=wrap;html=1;align=center;labelBackgroundColor=none;" vertex="1" parent="B8ZQgnajAHr_xDxayh_B-68">
          <mxGeometry y="299.03000000000054" width="185" height="90" as="geometry" />
        </mxCell>
        <mxCell id="B8ZQgnajAHr_xDxayh_B-71" style="edgeStyle=orthogonalEdgeStyle;rounded=0;orthogonalLoop=1;jettySize=auto;html=1;exitX=0.5;exitY=1;exitDx=0;exitDy=0;entryX=0.5;entryY=0;entryDx=0;entryDy=0;fontSize=15;labelBackgroundColor=none;" edge="1" parent="B8ZQgnajAHr_xDxayh_B-68" source="B8ZQgnajAHr_xDxayh_B-69" target="B8ZQgnajAHr_xDxayh_B-70">
          <mxGeometry relative="1" as="geometry" />
        </mxCell>
        <mxCell id="B8ZQgnajAHr_xDxayh_B-72" value="&lt;p&gt;productCode (V)&lt;br&gt;aflosVorm (V)&lt;br&gt;nieuweProResto (V)&lt;/p&gt;" style="text;html=1;strokeColor=none;fillColor=none;spacing=5;spacingTop=-20;whiteSpace=wrap;overflow=hidden;rounded=0;fontSize=15;align=center;labelBackgroundColor=none;" vertex="1" parent="B8ZQgnajAHr_xDxayh_B-68">
          <mxGeometry y="461.0000000000009" width="185" height="90" as="geometry" />
        </mxCell>
        <mxCell id="B8ZQgnajAHr_xDxayh_B-73" style="edgeStyle=orthogonalEdgeStyle;rounded=0;orthogonalLoop=1;jettySize=auto;html=1;exitX=0.5;exitY=1;exitDx=0;exitDy=0;entryX=0.5;entryY=0;entryDx=0;entryDy=0;fontSize=15;labelBackgroundColor=none;" edge="1" parent="B8ZQgnajAHr_xDxayh_B-68" source="B8ZQgnajAHr_xDxayh_B-70" target="B8ZQgnajAHr_xDxayh_B-72">
          <mxGeometry relative="1" as="geometry" />
        </mxCell>
        <mxCell id="B8ZQgnajAHr_xDxayh_B-74" value="" style="group" vertex="1" connectable="0" parent="1">
          <mxGeometry x="-2931" y="638" width="381" height="458.9999999999998" as="geometry" />
        </mxCell>
        <mxCell id="B8ZQgnajAHr_xDxayh_B-75" value="Wijzigen Leningdeel Dekking" style="text;html=1;strokeColor=none;fillColor=none;align=center;verticalAlign=middle;whiteSpace=wrap;rounded=0;fontStyle=1;fontSize=15;labelBackgroundColor=none;" vertex="1" parent="B8ZQgnajAHr_xDxayh_B-74">
          <mxGeometry x="111" width="147" height="50" as="geometry" />
        </mxCell>
        <mxCell id="B8ZQgnajAHr_xDxayh_B-76" value="Wijzigen dekking#1&lt;br&gt;&lt;span style=&quot;font-weight: normal&quot;&gt;(Verzekering)&lt;/span&gt;" style="text;html=1;strokeColor=none;fillColor=none;align=center;verticalAlign=middle;whiteSpace=wrap;rounded=0;fontStyle=1;fontSize=15;labelBackgroundColor=none;" vertex="1" parent="B8ZQgnajAHr_xDxayh_B-74">
          <mxGeometry x="19" y="109.99999999999932" width="147" height="50" as="geometry" />
        </mxCell>
        <mxCell id="B8ZQgnajAHr_xDxayh_B-77" style="edgeStyle=orthogonalEdgeStyle;rounded=0;orthogonalLoop=1;jettySize=auto;html=1;exitX=0.5;exitY=1;exitDx=0;exitDy=0;entryX=0.5;entryY=0;entryDx=0;entryDy=0;fontSize=15;labelBackgroundColor=none;" edge="1" parent="B8ZQgnajAHr_xDxayh_B-74" source="B8ZQgnajAHr_xDxayh_B-75" target="B8ZQgnajAHr_xDxayh_B-76">
          <mxGeometry relative="1" as="geometry" />
        </mxCell>
        <mxCell id="B8ZQgnajAHr_xDxayh_B-78" value="Wijzigen dekking#2&lt;br&gt;&lt;span style=&quot;font-weight: normal&quot;&gt;(bankproduct)&lt;/span&gt;" style="text;html=1;strokeColor=none;fillColor=none;align=center;verticalAlign=middle;whiteSpace=wrap;rounded=0;fontStyle=1;fontSize=15;labelBackgroundColor=none;" vertex="1" parent="B8ZQgnajAHr_xDxayh_B-74">
          <mxGeometry x="215" y="109.99999999999932" width="147" height="50" as="geometry" />
        </mxCell>
        <mxCell id="B8ZQgnajAHr_xDxayh_B-79" style="edgeStyle=orthogonalEdgeStyle;rounded=0;orthogonalLoop=1;jettySize=auto;html=1;exitX=0.5;exitY=1;exitDx=0;exitDy=0;entryX=0.5;entryY=0;entryDx=0;entryDy=0;fontSize=15;labelBackgroundColor=none;" edge="1" parent="B8ZQgnajAHr_xDxayh_B-74" source="B8ZQgnajAHr_xDxayh_B-75" target="B8ZQgnajAHr_xDxayh_B-78">
          <mxGeometry relative="1" as="geometry" />
        </mxCell>
        <mxCell id="B8ZQgnajAHr_xDxayh_B-80" value="&lt;div&gt;&lt;span&gt;&lt;font face=&quot;helvetica&quot;&gt;dekkingNr (V)&lt;/font&gt;&lt;/span&gt;&lt;/div&gt;&lt;div&gt;&lt;font face=&quot;helvetica&quot;&gt;polisNr (V)&lt;/font&gt;&lt;/div&gt;&lt;div&gt;&lt;span&gt;afkoopWaarde (V)&lt;/span&gt;&lt;br&gt;&lt;/div&gt;&lt;div&gt;maatschappij (V)&lt;font face=&quot;helvetica&quot;&gt;&lt;br&gt;&lt;/font&gt;&lt;/div&gt;&lt;div&gt;leningdeelNrRef (V)&lt;/div&gt;" style="text;whiteSpace=wrap;html=1;fontSize=15;align=center;labelBackgroundColor=none;" vertex="1" parent="B8ZQgnajAHr_xDxayh_B-74">
          <mxGeometry y="368.9999999999998" width="185" height="90" as="geometry" />
        </mxCell>
        <mxCell id="B8ZQgnajAHr_xDxayh_B-81" value="Fiscaal geruisloos voortzetten&amp;nbsp;" style="text;whiteSpace=wrap;html=1;fontSize=15;align=center;labelBackgroundColor=none;" vertex="1" parent="B8ZQgnajAHr_xDxayh_B-74">
          <mxGeometry x="196" y="207.02999999999975" width="185" height="90" as="geometry" />
        </mxCell>
        <mxCell id="B8ZQgnajAHr_xDxayh_B-82" style="edgeStyle=orthogonalEdgeStyle;rounded=0;orthogonalLoop=1;jettySize=auto;html=1;exitX=0.5;exitY=1;exitDx=0;exitDy=0;entryX=0.5;entryY=0;entryDx=0;entryDy=0;fontSize=15;labelBackgroundColor=none;" edge="1" parent="B8ZQgnajAHr_xDxayh_B-74" source="B8ZQgnajAHr_xDxayh_B-78" target="B8ZQgnajAHr_xDxayh_B-81">
          <mxGeometry relative="1" as="geometry" />
        </mxCell>
        <mxCell id="B8ZQgnajAHr_xDxayh_B-83" style="edgeStyle=orthogonalEdgeStyle;rounded=0;orthogonalLoop=1;jettySize=auto;html=1;exitX=0.5;exitY=1;exitDx=0;exitDy=0;entryX=0.5;entryY=0;entryDx=0;entryDy=0;fontSize=15;labelBackgroundColor=none;" edge="1" parent="B8ZQgnajAHr_xDxayh_B-74" source="B8ZQgnajAHr_xDxayh_B-84" target="B8ZQgnajAHr_xDxayh_B-80">
          <mxGeometry relative="1" as="geometry" />
        </mxCell>
        <mxCell id="B8ZQgnajAHr_xDxayh_B-84" value="Beëindigen financiele dekking door opzeggen polis met aflossing opgebouwde waarde (afkoop)" style="text;whiteSpace=wrap;html=1;fontSize=15;align=center;labelBackgroundColor=none;" vertex="1" parent="B8ZQgnajAHr_xDxayh_B-74">
          <mxGeometry y="207.02999999999975" width="185" height="90" as="geometry" />
        </mxCell>
        <mxCell id="B8ZQgnajAHr_xDxayh_B-85" style="edgeStyle=orthogonalEdgeStyle;rounded=0;orthogonalLoop=1;jettySize=auto;html=1;exitX=0.5;exitY=1;exitDx=0;exitDy=0;fontSize=15;labelBackgroundColor=none;" edge="1" parent="B8ZQgnajAHr_xDxayh_B-74" source="B8ZQgnajAHr_xDxayh_B-76" target="B8ZQgnajAHr_xDxayh_B-84">
          <mxGeometry relative="1" as="geometry" />
        </mxCell>
        <mxCell id="B8ZQgnajAHr_xDxayh_B-86" value="&lt;div style=&quot;color: rgb(0 , 0 , 0) ; font-family: &amp;#34;helvetica&amp;#34; ; font-size: 15px ; font-style: normal ; font-weight: 400 ; letter-spacing: normal ; text-indent: 0px ; text-transform: none ; word-spacing: 0px&quot;&gt;&lt;span&gt;&lt;font face=&quot;helvetica&quot;&gt;dekkingNr (V)&lt;/font&gt;&lt;/span&gt;&lt;/div&gt;&lt;div style=&quot;color: rgb(0 , 0 , 0) ; font-family: &amp;#34;helvetica&amp;#34; ; font-size: 15px ; font-style: normal ; font-weight: 400 ; letter-spacing: normal ; text-indent: 0px ; text-transform: none ; word-spacing: 0px&quot;&gt;&lt;font face=&quot;helvetica&quot;&gt;contractNr (CV)&lt;/font&gt;&lt;/div&gt;" style="text;whiteSpace=wrap;html=1;fontSize=15;align=center;labelBackgroundColor=none;" vertex="1" parent="B8ZQgnajAHr_xDxayh_B-74">
          <mxGeometry x="196" y="368.9999999999998" width="185" height="90" as="geometry" />
        </mxCell>
        <mxCell id="B8ZQgnajAHr_xDxayh_B-87" style="edgeStyle=orthogonalEdgeStyle;rounded=0;orthogonalLoop=1;jettySize=auto;html=1;exitX=0.5;exitY=1;exitDx=0;exitDy=0;entryX=0.5;entryY=0;entryDx=0;entryDy=0;fontSize=15;labelBackgroundColor=none;" edge="1" parent="B8ZQgnajAHr_xDxayh_B-74" source="B8ZQgnajAHr_xDxayh_B-81" target="B8ZQgnajAHr_xDxayh_B-86">
          <mxGeometry relative="1" as="geometry" />
        </mxCell>
        <mxCell id="B8ZQgnajAHr_xDxayh_B-88" value="" style="group" vertex="1" connectable="0" parent="1">
          <mxGeometry x="-4049" y="546.0000000000001" width="570.5" height="550.9999999999999" as="geometry" />
        </mxCell>
        <mxCell id="B8ZQgnajAHr_xDxayh_B-89" value="Wijzigen leningdeel#1" style="text;html=1;strokeColor=none;fillColor=none;align=center;verticalAlign=middle;whiteSpace=wrap;rounded=0;fontStyle=1;fontSize=15;labelBackgroundColor=none;" vertex="1" parent="B8ZQgnajAHr_xDxayh_B-88">
          <mxGeometry x="216.5699999999997" width="147" height="50" as="geometry" />
        </mxCell>
        <mxCell id="B8ZQgnajAHr_xDxayh_B-90" value="&lt;span style=&quot;color: rgb(0 , 0 , 0) ; font-family: &amp;#34;helvetica&amp;#34; ; font-size: 15px ; font-style: normal ; font-weight: 400 ; letter-spacing: normal ; text-indent: 0px ; text-transform: none ; word-spacing: 0px ; display: inline ; float: none&quot;&gt;Wijziging#2&lt;br&gt;Verlagen Leningdeel door Afkoop&lt;/span&gt;" style="text;whiteSpace=wrap;html=1;align=center;labelBackgroundColor=none;" vertex="1" parent="B8ZQgnajAHr_xDxayh_B-88">
          <mxGeometry x="197.57000000000016" y="299.02999999999986" width="185" height="90" as="geometry" />
        </mxCell>
        <mxCell id="B8ZQgnajAHr_xDxayh_B-91" style="edgeStyle=orthogonalEdgeStyle;rounded=0;orthogonalLoop=1;jettySize=auto;html=1;exitX=0.5;exitY=1;exitDx=0;exitDy=0;entryX=0.5;entryY=0;entryDx=0;entryDy=0;labelBackgroundColor=none;" edge="1" parent="B8ZQgnajAHr_xDxayh_B-88" source="B8ZQgnajAHr_xDxayh_B-89" target="B8ZQgnajAHr_xDxayh_B-90">
          <mxGeometry relative="1" as="geometry" />
        </mxCell>
        <mxCell id="B8ZQgnajAHr_xDxayh_B-92" value="&lt;span style=&quot;color: rgb(0 , 0 , 0) ; font-family: &amp;#34;helvetica&amp;#34; ; font-size: 15px ; font-style: normal ; font-weight: 400 ; letter-spacing: normal ; text-indent: 0px ; text-transform: none ; word-spacing: 0px ; display: inline ; float: none&quot;&gt;Wijziging#3&lt;br&gt;Verkorten &lt;br&gt;Looptijd&lt;/span&gt;" style="text;whiteSpace=wrap;html=1;align=center;labelBackgroundColor=none;" vertex="1" parent="B8ZQgnajAHr_xDxayh_B-88">
          <mxGeometry x="385.5" y="299.02999999999963" width="185" height="90" as="geometry" />
        </mxCell>
        <mxCell id="B8ZQgnajAHr_xDxayh_B-93" style="edgeStyle=orthogonalEdgeStyle;rounded=0;orthogonalLoop=1;jettySize=auto;html=1;exitX=0.5;exitY=1;exitDx=0;exitDy=0;entryX=0.5;entryY=0;entryDx=0;entryDy=0;labelBackgroundColor=none;" edge="1" parent="B8ZQgnajAHr_xDxayh_B-88" source="B8ZQgnajAHr_xDxayh_B-89" target="B8ZQgnajAHr_xDxayh_B-92">
          <mxGeometry relative="1" as="geometry" />
        </mxCell>
        <mxCell id="B8ZQgnajAHr_xDxayh_B-94" value="&lt;p&gt;leningdeelNr (V)&lt;br&gt;nieuweProResto (V)&lt;br&gt;dekkingNrRefr&lt;br&gt;&lt;/p&gt;" style="text;html=1;strokeColor=none;fillColor=none;spacing=5;spacingTop=-20;whiteSpace=wrap;overflow=hidden;rounded=0;fontSize=15;align=center;labelBackgroundColor=none;" vertex="1" parent="B8ZQgnajAHr_xDxayh_B-88">
          <mxGeometry x="197.56999999999925" y="460.9999999999998" width="185" height="90" as="geometry" />
        </mxCell>
        <mxCell id="B8ZQgnajAHr_xDxayh_B-95" style="edgeStyle=orthogonalEdgeStyle;rounded=0;orthogonalLoop=1;jettySize=auto;html=1;exitX=0.5;exitY=1;exitDx=0;exitDy=0;entryX=0.5;entryY=0;entryDx=0;entryDy=0;fontSize=15;labelBackgroundColor=none;" edge="1" parent="B8ZQgnajAHr_xDxayh_B-88" source="B8ZQgnajAHr_xDxayh_B-90" target="B8ZQgnajAHr_xDxayh_B-94">
          <mxGeometry relative="1" as="geometry" />
        </mxCell>
        <mxCell id="B8ZQgnajAHr_xDxayh_B-96" value="&lt;p&gt;leningdeelNr (V)&lt;br&gt;eindDatum looptijd (V)&lt;br&gt;duurInMndn (O)&lt;/p&gt;" style="text;html=1;strokeColor=none;fillColor=none;spacing=5;spacingTop=-20;whiteSpace=wrap;overflow=hidden;rounded=0;fontSize=15;align=center;labelBackgroundColor=none;" vertex="1" parent="B8ZQgnajAHr_xDxayh_B-88">
          <mxGeometry x="385.5" y="461" width="185" height="90" as="geometry" />
        </mxCell>
        <mxCell id="B8ZQgnajAHr_xDxayh_B-97" style="edgeStyle=orthogonalEdgeStyle;rounded=0;orthogonalLoop=1;jettySize=auto;html=1;exitX=0.5;exitY=1;exitDx=0;exitDy=0;entryX=0.5;entryY=0;entryDx=0;entryDy=0;fontSize=15;labelBackgroundColor=none;" edge="1" parent="B8ZQgnajAHr_xDxayh_B-88" source="B8ZQgnajAHr_xDxayh_B-92" target="B8ZQgnajAHr_xDxayh_B-96">
          <mxGeometry relative="1" as="geometry" />
        </mxCell>
        <mxCell id="B8ZQgnajAHr_xDxayh_B-98" value="&lt;span style=&quot;color: rgb(0 , 0 , 0) ; font-family: &amp;#34;helvetica&amp;#34; ; font-size: 15px ; font-style: normal ; font-weight: 400 ; letter-spacing: normal ; text-indent: 0px ; text-transform: none ; word-spacing: 0px ; display: inline ; float: none&quot;&gt;Wijziging#1&lt;br&gt;Omzetten Hypotheekvorm (Aflosvorm)&lt;/span&gt;" style="text;whiteSpace=wrap;html=1;align=center;labelBackgroundColor=none;" vertex="1" parent="B8ZQgnajAHr_xDxayh_B-88">
          <mxGeometry y="299.02999999999986" width="185" height="90" as="geometry" />
        </mxCell>
        <mxCell id="B8ZQgnajAHr_xDxayh_B-99" style="edgeStyle=orthogonalEdgeStyle;rounded=0;orthogonalLoop=1;jettySize=auto;html=1;exitX=0.5;exitY=1;exitDx=0;exitDy=0;" edge="1" parent="B8ZQgnajAHr_xDxayh_B-88" source="B8ZQgnajAHr_xDxayh_B-89" target="B8ZQgnajAHr_xDxayh_B-98">
          <mxGeometry relative="1" as="geometry" />
        </mxCell>
        <mxCell id="B8ZQgnajAHr_xDxayh_B-100" value="&lt;p&gt;leningdeelNr (V)&lt;br&gt;productCode (V)&lt;br&gt;AflosVorm (O)&lt;/p&gt;&lt;p&gt;&lt;br&gt;&lt;/p&gt;" style="text;html=1;strokeColor=none;fillColor=none;spacing=5;spacingTop=-20;whiteSpace=wrap;overflow=hidden;rounded=0;fontSize=15;align=center;labelBackgroundColor=none;" vertex="1" parent="B8ZQgnajAHr_xDxayh_B-88">
          <mxGeometry x="3" y="460.9999999999999" width="178" height="69" as="geometry" />
        </mxCell>
        <mxCell id="B8ZQgnajAHr_xDxayh_B-101" style="edgeStyle=orthogonalEdgeStyle;rounded=0;orthogonalLoop=1;jettySize=auto;html=1;exitX=0.5;exitY=1;exitDx=0;exitDy=0;" edge="1" parent="B8ZQgnajAHr_xDxayh_B-88" source="B8ZQgnajAHr_xDxayh_B-98" target="B8ZQgnajAHr_xDxayh_B-100">
          <mxGeometry relative="1" as="geometry" />
        </mxCell>
        <mxCell id="B8ZQgnajAHr_xDxayh_B-102" value="" style="group" vertex="1" connectable="0" parent="1">
          <mxGeometry x="-3417" y="545.9999999999992" width="185" height="551.0000000000008" as="geometry" />
        </mxCell>
        <mxCell id="B8ZQgnajAHr_xDxayh_B-103" value="NIET Wijzigen leningdeel#2" style="text;html=1;strokeColor=none;fillColor=none;align=center;verticalAlign=middle;whiteSpace=wrap;rounded=0;fontStyle=1;fontSize=15;labelBackgroundColor=none;" vertex="1" parent="B8ZQgnajAHr_xDxayh_B-102">
          <mxGeometry x="19.139999999999873" width="147" height="50" as="geometry" />
        </mxCell>
        <mxCell id="B8ZQgnajAHr_xDxayh_B-104" value="Ongewijzigd voortzetten leningdeel#2" style="text;whiteSpace=wrap;html=1;fontSize=15;align=center;labelBackgroundColor=none;" vertex="1" parent="B8ZQgnajAHr_xDxayh_B-102">
          <mxGeometry y="299.03000000000054" width="185" height="90" as="geometry" />
        </mxCell>
        <mxCell id="B8ZQgnajAHr_xDxayh_B-105" style="edgeStyle=orthogonalEdgeStyle;rounded=0;orthogonalLoop=1;jettySize=auto;html=1;exitX=0.5;exitY=1;exitDx=0;exitDy=0;fontSize=15;labelBackgroundColor=none;" edge="1" parent="B8ZQgnajAHr_xDxayh_B-102" source="B8ZQgnajAHr_xDxayh_B-103" target="B8ZQgnajAHr_xDxayh_B-104">
          <mxGeometry relative="1" as="geometry" />
        </mxCell>
        <mxCell id="B8ZQgnajAHr_xDxayh_B-106" value="&lt;meta charset=&quot;utf-8&quot;&gt;&lt;span style=&quot;color: rgb(0, 0, 0); font-family: helvetica; font-size: 15px; font-style: normal; font-weight: 400; letter-spacing: normal; text-indent: 0px; text-transform: none; word-spacing: 0px; display: inline; float: none;&quot;&gt;leningdeelNr (V)&lt;/span&gt;" style="text;whiteSpace=wrap;html=1;fontSize=15;align=center;labelBackgroundColor=none;" vertex="1" parent="B8ZQgnajAHr_xDxayh_B-102">
          <mxGeometry y="461.0000000000009" width="185" height="90" as="geometry" />
        </mxCell>
        <mxCell id="B8ZQgnajAHr_xDxayh_B-107" style="edgeStyle=orthogonalEdgeStyle;rounded=0;orthogonalLoop=1;jettySize=auto;html=1;exitX=0.5;exitY=1;exitDx=0;exitDy=0;entryX=0.5;entryY=0;entryDx=0;entryDy=0;fontSize=15;labelBackgroundColor=none;" edge="1" parent="B8ZQgnajAHr_xDxayh_B-102" source="B8ZQgnajAHr_xDxayh_B-104" target="B8ZQgnajAHr_xDxayh_B-106">
          <mxGeometry relative="1" as="geometry" />
        </mxCell>
      </root>
    </mxGraphModel>
  </diagram>
</mxfile>
